<svg class="w-28 h-28" xmlns="http://www.w3.org/2000/svg" xmlns:xlink="http://www.w3.org/1999/xlink" viewBox="0 0 349.11 468.91"><defs><style>.cls-1{fill:url(#Unbenannter_Verlauf_13);}.cls-2{fill:#4c4394;}</style><linearGradient id="Unbenannter_Verlauf_13" x1="174.56" y1="349.11" x2="174.56" gradientUnits="userSpaceOnUse"><stop offset="0" stop-color="#4c4394"></stop><stop offset="1" stop-color="#3b57a3"></stop></linearGradient></defs><g id="Layer_2" data-name="Layer 2"><g id="Ebene_1" data-name="Ebene 1"><path class="cls-1" d="M349.11,77.58a77.58,77.58,0,0,0-155.16,0V168a12.93,12.93,0,0,0,25.86,0V77.58a51.72,51.72,0,0,1,103.44,0V220a77.24,77.24,0,0,0-51.72-19.81H77.58A77.28,77.28,0,0,0,25.86,220V77.58a51.72,51.72,0,0,1,103.44,0V168a12.93,12.93,0,0,0,25.86,0V77.58A77.58,77.58,0,0,0,0,77.58v194c0,1.05,0,2.09.07,3.12S0,276.72,0,277.77H.25a77.58,77.58,0,0,0,154.91-6.24V259.2a12.93,12.93,0,1,0-25.86,0v12.33A51.72,51.72,0,0,1,26,274.65a51.78,51.78,0,0,1,51.62-48.6h194a51.78,51.78,0,0,1,51.62,48.6,51.72,51.72,0,0,1-103.34-3.12V259.2a12.93,12.93,0,1,0-25.86,0v12.33a77.58,77.58,0,0,0,154.91,6.24h.25q0-1.57-.06-3.12t.06-3.12Z"></path><path class="cls-2" d="M48.66,434.65H23v-22.3H9.88v56.56H23V445.72H48.66v23.19H61.75V412.35H48.66Zm76.61-22.3-25.21,56.56h13.41l5-12.12h26.26l5,12.12h13.74L138.2,412.35Zm-2.59,34.5,9-21.65,9,21.65Zm98.66-34.5-25.21,56.56h13.42l5-12.12h26.26l5,12.12h13.73l-25.29-56.56Zm-2.58,34.5,9-21.65,9,21.65Zm92.11,11.4v-45.9H297.78v56.56h41.46V458.25Z"></path></g></g></svg>